<svg width="215" height="56" viewBox="0 0 215 56" fill="none" xmlns="http://www.w3.org/2000/svg">
<rect width="67" height="56" rx="6" fill="white"/>
<path d="M76.898 24.093C76.0093 24.093 75.3067 23.8347 74.79 23.318C74.2733 22.8013 74.015 22.0987 74.015 21.21V5.183C74.2423 5.14167 74.604 5.09 75.1 5.028C75.596 4.94533 76.0713 4.904 76.526 4.904C77.0013 4.904 77.4147 4.94533 77.766 5.028C78.138 5.09 78.448 5.214 78.696 5.4C78.944 5.586 79.13 5.84433 79.254 6.175C79.378 6.50567 79.44 6.93967 79.44 7.477V19.722H86.539C86.6837 19.9493 86.818 20.2593 86.942 20.652C87.066 21.024 87.128 21.4167 87.128 21.83C87.128 22.6567 86.9523 23.2457 86.601 23.597C86.2497 23.9277 85.7847 24.093 85.206 24.093H76.898ZM89.3816 4.749C89.3816 3.96367 89.6399 3.30233 90.1566 2.765C90.6939 2.22767 91.3966 1.959 92.2646 1.959C93.1326 1.959 93.8249 2.22767 94.3416 2.765C94.8789 3.30233 95.1476 3.96367 95.1476 4.749C95.1476 5.53433 94.8789 6.19567 94.3416 6.733C93.8249 7.27033 93.1326 7.539 92.2646 7.539C91.3966 7.539 90.6939 7.27033 90.1566 6.733C89.6399 6.19567 89.3816 5.53433 89.3816 4.749ZM94.8996 23.969C94.6722 24.0103 94.3312 24.062 93.8766 24.124C93.4426 24.2067 92.9982 24.248 92.5436 24.248C92.0889 24.248 91.6756 24.217 91.3036 24.155C90.9522 24.093 90.6526 23.969 90.4046 23.783C90.1566 23.597 89.9602 23.349 89.8156 23.039C89.6916 22.7083 89.6296 22.2847 89.6296 21.768V9.151C89.8569 9.10967 90.1876 9.058 90.6216 8.996C91.0762 8.91333 91.5309 8.872 91.9856 8.872C92.4402 8.872 92.8432 8.903 93.1946 8.965C93.5666 9.027 93.8766 9.151 94.1246 9.337C94.3726 9.523 94.5586 9.78133 94.6826 10.112C94.8272 10.422 94.8996 10.8353 94.8996 11.352V23.969ZM108.33 23.597C108.04 23.8243 107.617 24.0103 107.059 24.155C106.501 24.2997 105.87 24.372 105.168 24.372C104.362 24.372 103.659 24.2687 103.06 24.062C102.481 23.8553 102.078 23.5247 101.851 23.07C101.665 22.7187 101.437 22.233 101.169 21.613C100.921 20.9723 100.652 20.2697 100.363 19.505C100.073 18.7197 99.7736 17.8827 99.4636 16.994C99.1536 16.1053 98.8539 15.227 98.5646 14.359C98.2959 13.491 98.0479 12.654 97.8206 11.848C97.5932 11.042 97.4072 10.329 97.2626 9.709C97.5519 9.41967 97.9342 9.17167 98.4096 8.965C98.9056 8.73767 99.4429 8.624 100.022 8.624C100.745 8.624 101.334 8.779 101.789 9.089C102.264 9.37833 102.615 9.93633 102.843 10.763L104.052 15.506C104.279 16.436 104.496 17.2833 104.703 18.048C104.909 18.792 105.064 19.3707 105.168 19.784H105.323C105.715 18.2547 106.129 16.56 106.563 14.7C106.997 12.84 107.389 11.011 107.741 9.213C108.092 9.027 108.485 8.88233 108.919 8.779C109.373 8.67567 109.807 8.624 110.221 8.624C110.944 8.624 111.554 8.779 112.05 9.089C112.546 9.399 112.794 9.93633 112.794 10.701C112.794 11.0317 112.711 11.5173 112.546 12.158C112.401 12.778 112.205 13.491 111.957 14.297C111.729 15.0823 111.45 15.9193 111.12 16.808C110.81 17.6967 110.489 18.5647 110.159 19.412C109.828 20.2593 109.497 21.055 109.167 21.799C108.857 22.5223 108.578 23.1217 108.33 23.597ZM120.205 23.969C119.999 24.031 119.668 24.093 119.213 24.155C118.779 24.217 118.325 24.248 117.849 24.248C117.395 24.248 116.981 24.217 116.609 24.155C116.258 24.093 115.958 23.969 115.71 23.783C115.462 23.597 115.266 23.349 115.121 23.039C114.997 22.7083 114.935 22.2847 114.935 21.768V12.468C114.935 11.9927 115.018 11.5897 115.183 11.259C115.369 10.9077 115.628 10.5977 115.958 10.329C116.289 10.0603 116.692 9.82267 117.167 9.616C117.663 9.38867 118.19 9.19233 118.748 9.027C119.306 8.86167 119.885 8.73767 120.484 8.655C121.084 8.55167 121.683 8.5 122.282 8.5C123.274 8.5 124.06 8.69633 124.638 9.089C125.217 9.461 125.506 10.081 125.506 10.949C125.506 11.2383 125.465 11.5277 125.382 11.817C125.3 12.0857 125.196 12.3337 125.072 12.561C124.638 12.561 124.194 12.5817 123.739 12.623C123.285 12.6643 122.84 12.7263 122.406 12.809C121.972 12.8917 121.559 12.9847 121.166 13.088C120.794 13.1707 120.474 13.274 120.205 13.398V23.969ZM135.072 24.496C133.853 24.496 132.716 24.3307 131.662 24C130.629 23.6487 129.719 23.132 128.934 22.45C128.169 21.768 127.56 20.9103 127.105 19.877C126.671 18.8437 126.454 17.6347 126.454 16.25C126.454 14.886 126.671 13.7183 127.105 12.747C127.56 11.755 128.149 10.949 128.872 10.329C129.595 9.68833 130.422 9.22333 131.352 8.934C132.282 8.624 133.233 8.469 134.204 8.469C135.299 8.469 136.291 8.63433 137.18 8.965C138.089 9.29567 138.864 9.75033 139.505 10.329C140.166 10.9077 140.673 11.6 141.024 12.406C141.396 13.212 141.582 14.0903 141.582 15.041C141.582 15.7437 141.386 16.281 140.993 16.653C140.6 17.025 140.053 17.2627 139.35 17.366L131.693 18.513C131.92 19.195 132.385 19.7117 133.088 20.063C133.791 20.3937 134.597 20.559 135.506 20.559C136.353 20.559 137.149 20.4557 137.893 20.249C138.658 20.0217 139.278 19.7633 139.753 19.474C140.084 19.6807 140.363 19.97 140.59 20.342C140.817 20.714 140.931 21.1067 140.931 21.52C140.931 22.45 140.497 23.1423 139.629 23.597C138.968 23.9483 138.224 24.186 137.397 24.31C136.57 24.434 135.795 24.496 135.072 24.496ZM134.204 12.313C133.708 12.313 133.274 12.3957 132.902 12.561C132.551 12.7263 132.261 12.9433 132.034 13.212C131.807 13.46 131.631 13.7493 131.507 14.08C131.404 14.39 131.342 14.7103 131.321 15.041L136.622 14.173C136.56 13.7597 136.333 13.3463 135.94 12.933C135.547 12.5197 134.969 12.313 134.204 12.313ZM74.015 35.097C74.015 34.2083 74.2733 33.5057 74.79 32.989C75.3067 32.4723 76.0093 32.214 76.898 32.214H87.128C87.2727 32.4413 87.3967 32.741 87.5 33.113C87.624 33.485 87.686 33.8777 87.686 34.291C87.686 35.0763 87.5103 35.6343 87.159 35.965C86.8283 36.2957 86.384 36.461 85.826 36.461H79.285V39.344H86.26C86.4047 39.5713 86.5287 39.871 86.632 40.243C86.756 40.5943 86.818 40.9767 86.818 41.39C86.818 42.1753 86.6527 42.7333 86.322 43.064C85.9913 43.3947 85.547 43.56 84.989 43.56H79.285V46.815H87.252C87.3967 47.0423 87.5207 47.342 87.624 47.714C87.748 48.086 87.81 48.4787 87.81 48.892C87.81 49.6773 87.6343 50.2457 87.283 50.597C86.9523 50.9277 86.508 51.093 85.95 51.093H76.898C76.0093 51.093 75.3067 50.8347 74.79 50.318C74.2733 49.8013 74.015 49.0987 74.015 48.21V35.097ZM89.4903 43.467C89.4903 42.103 89.697 40.925 90.1103 39.933C90.5236 38.9203 91.092 38.0833 91.8153 37.422C92.5593 36.7607 93.417 36.275 94.3883 35.965C95.3803 35.6343 96.4446 35.469 97.5813 35.469C97.9946 35.469 98.3976 35.5103 98.7903 35.593C99.183 35.655 99.5033 35.7377 99.7513 35.841V30.819C99.958 30.757 100.289 30.695 100.743 30.633C101.198 30.5503 101.663 30.509 102.138 30.509C102.593 30.509 102.996 30.54 103.347 30.602C103.719 30.664 104.029 30.788 104.277 30.974C104.525 31.16 104.711 31.4183 104.835 31.749C104.959 32.059 105.021 32.4723 105.021 32.989V47.683C105.021 48.6543 104.567 49.4293 103.657 50.008C103.058 50.4007 102.283 50.7417 101.332 51.031C100.382 51.341 99.2863 51.496 98.0463 51.496C96.703 51.496 95.494 51.31 94.4193 50.938C93.3653 50.566 92.4663 50.0287 91.7223 49.326C90.999 48.6233 90.441 47.7863 90.0483 46.815C89.6763 45.823 89.4903 44.707 89.4903 43.467ZM98.2943 39.592C97.1783 39.592 96.3206 39.9123 95.7213 40.553C95.122 41.1937 94.8223 42.165 94.8223 43.467C94.8223 44.7483 95.1013 45.7197 95.6593 46.381C96.2173 47.0217 97.0233 47.342 98.0773 47.342C98.4493 47.342 98.78 47.2903 99.0693 47.187C99.3793 47.063 99.617 46.9287 99.7823 46.784V39.964C99.369 39.716 98.873 39.592 98.2943 39.592ZM108.305 36.151C108.512 36.089 108.832 36.027 109.266 35.965C109.721 35.903 110.186 35.872 110.661 35.872C111.116 35.872 111.519 35.903 111.87 35.965C112.242 36.027 112.552 36.151 112.8 36.337C113.048 36.523 113.234 36.7813 113.358 37.112C113.503 37.422 113.575 37.8353 113.575 38.352V45.017C113.575 45.8643 113.782 46.474 114.195 46.846C114.609 47.1973 115.208 47.373 115.993 47.373C116.469 47.373 116.851 47.3317 117.14 47.249C117.45 47.1663 117.688 47.0837 117.853 47.001V36.151C118.06 36.089 118.38 36.027 118.814 35.965C119.269 35.903 119.734 35.872 120.209 35.872C120.664 35.872 121.067 35.903 121.418 35.965C121.79 36.027 122.1 36.151 122.348 36.337C122.596 36.523 122.782 36.7813 122.906 37.112C123.051 37.422 123.123 37.8353 123.123 38.352V47.776C123.123 48.8093 122.689 49.5843 121.821 50.101C121.098 50.5557 120.23 50.8967 119.217 51.124C118.225 51.372 117.14 51.496 115.962 51.496C114.846 51.496 113.813 51.372 112.862 51.124C111.932 50.876 111.126 50.4937 110.444 49.977C109.762 49.4603 109.235 48.799 108.863 47.993C108.491 47.1663 108.305 46.1743 108.305 45.017V36.151ZM134.842 39.623C134.326 39.623 133.83 39.7057 133.354 39.871C132.9 40.0363 132.497 40.2843 132.145 40.615C131.815 40.925 131.546 41.3177 131.339 41.793C131.133 42.2683 131.029 42.8263 131.029 43.467C131.029 44.7483 131.391 45.7093 132.114 46.35C132.858 46.9907 133.757 47.311 134.811 47.311C135.431 47.311 135.969 47.2387 136.423 47.094C136.878 46.9493 137.281 46.7943 137.632 46.629C138.046 46.9183 138.356 47.2387 138.562 47.59C138.769 47.9207 138.872 48.3237 138.872 48.799C138.872 49.6463 138.469 50.3077 137.663 50.783C136.857 51.2377 135.741 51.465 134.315 51.465C133.013 51.465 131.835 51.279 130.781 50.907C129.727 50.5143 128.818 49.977 128.053 49.295C127.309 48.5923 126.731 47.7553 126.317 46.784C125.904 45.8127 125.697 44.738 125.697 43.56C125.697 42.196 125.914 41.0077 126.348 39.995C126.803 38.9617 127.413 38.1143 128.177 37.453C128.942 36.7917 129.82 36.2957 130.812 35.965C131.825 35.6343 132.889 35.469 134.005 35.469C135.493 35.469 136.64 35.7377 137.446 36.275C138.252 36.8123 138.655 37.5047 138.655 38.352C138.655 38.7447 138.562 39.1167 138.376 39.468C138.19 39.7987 137.973 40.088 137.725 40.336C137.374 40.1707 136.95 40.0157 136.454 39.871C135.958 39.7057 135.421 39.623 134.842 39.623ZM147.963 47.652C148.315 47.652 148.697 47.621 149.11 47.559C149.544 47.4763 149.865 47.373 150.071 47.249V44.769L147.839 44.955C147.261 44.9963 146.785 45.1203 146.413 45.327C146.041 45.5337 145.855 45.8437 145.855 46.257C145.855 46.6703 146.01 47.0113 146.32 47.28C146.651 47.528 147.199 47.652 147.963 47.652ZM147.715 35.469C148.831 35.469 149.844 35.5827 150.753 35.81C151.683 36.0373 152.469 36.3887 153.109 36.864C153.771 37.3187 154.277 37.9077 154.628 38.631C154.98 39.3337 155.155 40.1707 155.155 41.142V48.086C155.155 48.6233 155 49.0677 154.69 49.419C154.401 49.7497 154.05 50.039 153.636 50.287C152.293 51.093 150.402 51.496 147.963 51.496C146.868 51.496 145.876 51.3927 144.987 51.186C144.119 50.9793 143.365 50.6693 142.724 50.256C142.104 49.8427 141.619 49.3157 141.267 48.675C140.937 48.0343 140.771 47.2903 140.771 46.443C140.771 45.017 141.195 43.9217 142.042 43.157C142.89 42.3923 144.202 41.917 145.979 41.731L150.04 41.297V41.08C150.04 40.4807 149.772 40.057 149.234 39.809C148.718 39.5403 147.963 39.406 146.971 39.406C146.186 39.406 145.421 39.4887 144.677 39.654C143.933 39.8193 143.262 40.026 142.662 40.274C142.394 40.088 142.166 39.809 141.98 39.437C141.794 39.0443 141.701 38.6413 141.701 38.228C141.701 37.6907 141.825 37.267 142.073 36.957C142.342 36.6263 142.745 36.3473 143.282 36.12C143.882 35.8927 144.584 35.7273 145.39 35.624C146.217 35.5207 146.992 35.469 147.715 35.469ZM163.648 45.823C163.648 46.3603 163.813 46.7427 164.144 46.97C164.495 47.1973 164.981 47.311 165.601 47.311C165.911 47.311 166.231 47.2903 166.562 47.249C166.892 47.187 167.182 47.1147 167.43 47.032C167.616 47.2593 167.771 47.5177 167.895 47.807C168.039 48.0757 168.112 48.4063 168.112 48.799C168.112 49.5843 167.812 50.225 167.213 50.721C166.634 51.217 165.601 51.465 164.113 51.465C162.294 51.465 160.889 51.0517 159.897 50.225C158.925 49.3983 158.44 48.055 158.44 46.195V32.927C158.667 32.865 158.987 32.803 159.401 32.741C159.835 32.6583 160.289 32.617 160.765 32.617C161.674 32.617 162.377 32.7823 162.873 33.113C163.389 33.423 163.648 34.0947 163.648 35.128V37.112H167.709C167.833 37.3393 167.946 37.6287 168.05 37.98C168.174 38.3107 168.236 38.6827 168.236 39.096C168.236 39.8193 168.07 40.3463 167.74 40.677C167.43 40.987 167.006 41.142 166.469 41.142H163.648V45.823ZM170.666 31.749C170.666 30.9637 170.924 30.3023 171.441 29.765C171.978 29.2277 172.681 28.959 173.549 28.959C174.417 28.959 175.109 29.2277 175.626 29.765C176.163 30.3023 176.432 30.9637 176.432 31.749C176.432 32.5343 176.163 33.1957 175.626 33.733C175.109 34.2703 174.417 34.539 173.549 34.539C172.681 34.539 171.978 34.2703 171.441 33.733C170.924 33.1957 170.666 32.5343 170.666 31.749ZM176.184 50.969C175.956 51.0103 175.615 51.062 175.161 51.124C174.727 51.2067 174.282 51.248 173.828 51.248C173.373 51.248 172.96 51.217 172.588 51.155C172.236 51.093 171.937 50.969 171.689 50.783C171.441 50.597 171.244 50.349 171.1 50.039C170.976 49.7083 170.914 49.2847 170.914 48.768V36.151C171.141 36.1097 171.472 36.058 171.906 35.996C172.36 35.9133 172.815 35.872 173.27 35.872C173.724 35.872 174.127 35.903 174.479 35.965C174.851 36.027 175.161 36.151 175.409 36.337C175.657 36.523 175.843 36.7813 175.967 37.112C176.111 37.422 176.184 37.8353 176.184 38.352V50.969ZM195.132 43.467C195.132 44.7483 194.935 45.8953 194.543 46.908C194.15 47.9 193.592 48.737 192.869 49.419C192.166 50.101 191.319 50.6177 190.327 50.969C189.335 51.3203 188.229 51.496 187.01 51.496C185.79 51.496 184.685 51.31 183.693 50.938C182.701 50.566 181.843 50.039 181.12 49.357C180.417 48.6543 179.869 47.807 179.477 46.815C179.084 45.823 178.888 44.707 178.888 43.467C178.888 42.2477 179.084 41.142 179.477 40.15C179.869 39.158 180.417 38.321 181.12 37.639C181.843 36.9363 182.701 36.399 183.693 36.027C184.685 35.655 185.79 35.469 187.01 35.469C188.229 35.469 189.335 35.6653 190.327 36.058C191.319 36.43 192.166 36.9673 192.869 37.67C193.592 38.352 194.15 39.189 194.543 40.181C194.935 41.173 195.132 42.2683 195.132 43.467ZM184.282 43.467C184.282 44.7277 184.519 45.699 184.995 46.381C185.491 47.0423 186.173 47.373 187.041 47.373C187.909 47.373 188.57 47.032 189.025 46.35C189.5 45.668 189.738 44.707 189.738 43.467C189.738 42.227 189.5 41.2763 189.025 40.615C188.549 39.933 187.878 39.592 187.01 39.592C186.142 39.592 185.47 39.933 184.995 40.615C184.519 41.2763 184.282 42.227 184.282 43.467ZM207.251 41.452C207.251 40.8113 207.065 40.3463 206.693 40.057C206.341 39.747 205.856 39.592 205.236 39.592C204.822 39.592 204.409 39.6437 203.996 39.747C203.603 39.8503 203.262 40.0053 202.973 40.212V50.969C202.766 51.031 202.435 51.093 201.981 51.155C201.547 51.217 201.092 51.248 200.617 51.248C200.162 51.248 199.749 51.217 199.377 51.155C199.025 51.093 198.726 50.969 198.478 50.783C198.23 50.597 198.033 50.349 197.889 50.039C197.765 49.7083 197.703 49.2847 197.703 48.768V39.468C197.703 38.91 197.816 38.4553 198.044 38.104C198.292 37.7527 198.622 37.4323 199.036 37.143C199.738 36.647 200.617 36.244 201.671 35.934C202.745 35.624 203.934 35.469 205.236 35.469C207.571 35.469 209.369 35.9857 210.63 37.019C211.89 38.0317 212.521 39.4473 212.521 41.266V50.969C212.314 51.031 211.983 51.093 211.529 51.155C211.095 51.217 210.64 51.248 210.165 51.248C209.71 51.248 209.297 51.217 208.925 51.155C208.573 51.093 208.274 50.969 208.026 50.783C207.778 50.597 207.581 50.349 207.437 50.039C207.313 49.7083 207.251 49.2847 207.251 48.768V41.452Z" fill="black"/>
<path d="M49.656 14.5834C49.656 13.535 48.8041 12.6857 47.7524 12.6857H19.8333C18.7816 12.6857 17.9298 13.535 17.9298 14.5834V33.2443H49.656V14.5834ZM46.4833 30.0814H21.1024V15.8486H46.4833V30.0814ZM49.656 34.8257H17.9298C17.6173 35.414 14.7571 42.0718 14.7571 42.7297C14.7571 43.5552 15.4202 44.3143 16.3466 44.3143H51.2391C52.1655 44.3143 52.8286 43.5552 52.8286 42.7297C52.8286 42.0718 49.9685 35.414 49.656 34.8257ZM30.257 42.7329L30.9978 41.1514H36.5863L37.3272 42.7329H30.257Z" fill="black"/>
</svg>
